# xmcd
#
# Track frame offsets:
# 150
# 12527
# 24204
# 38941
# 53448
# 66357
# 82295
# 95690
# 109916
# 123292
# 136453
# 148666
# 161547
# 175641
# 189800
# 203136
# 215601
# 228080
# 242108
# 256202
#
# Disc length: 3598 seconds
#
#
# Revision: 0
# Processed by: cddbd v1.5.1PL2 Copyright (c) Steve Scherf et al.
# Submitted via: FreeRIP 2.945 
#
DISCID=140e0c14
DTITLE=Variados - Epoca Del Pasado Vol 1
DYEAR=1900
DGENRE=Boleros
TTITLE0=Percal -Bienvenido Granda
TTITLE1=No Vendras -Vicentico Valdez
TTITLE2=Mentira Salome -Toña la Negra
TTITLE3=Ya lo Veras -Leo Marini
TTITLE4=Amor de Pobre -Miltino
TTITLE5=Tiemblas -Tito Rodriguez
TTITLE6=Con mi Corazon te Espero -Roberto Ledesma
TTITLE7=Besame Mucho -Lucho Gatica
TTITLE8=Oyelo Bien -Roberto Yanes
TTITLE9=Hola Soledad -Rolando La Serie
TTITLE10=Sin Egoismo -Orlando Contreras
TTITLE11=No Me Escriba -Julita Ross
TTITLE12=Temes -Vitin Aviles
TTITLE13=Vuelve -Trio Vegabajeño
TTITLE14=Aunque me cueste la vida -Alberto Beltran
TTITLE15=Poema -Los Hnos Arriagada
TTITLE16=Recuerdame -Armando Vega
TTITLE17=Despedida -Daniel Santos
TTITLE18=Hambre -Blanca Rosa Gil
TTITLE19=Brujeria -Trio Los Condes
EXTD=
EXTT0=
EXTT1=
EXTT2=
EXTT3=
EXTT4=
EXTT5=
EXTT6=
EXTT7=
EXTT8=
EXTT9=
EXTT10=
EXTT11=
EXTT12=
EXTT13=
EXTT14=
EXTT15=
EXTT16=
EXTT17=
EXTT18=
EXTT19=
PLAYORDER=
